Coordinates
version=1
nRows=14
nColumns=46
inDegrees=yes

Units are S.I. units (second, meters, Newtons, ...)
Angles are in degrees.

endheader
time	pelvis_tilt	pelvis_list	pelvis_rotation	pelvis_tx	pelvis_ty	pelvis_tz	bb_angle	bb_tx	bb_ty	bb_tz	hip_flexion_r	hip_adduction_r	hip_rotation_r	knee_angle_r	knee_angle_r_beta	ankle_angle_r	subtalar_angle_r	mtp_angle_r	crank_angle_r	hip_flexion_l	hip_adduction_l	hip_rotation_l	knee_angle_l	knee_angle_l_beta	ankle_angle_l	subtalar_angle_l	mtp_angle_l	crank_angle_l	lumbar_extension	lumbar_bending	lumbar_rotation	arm_flex_r	arm_add_r	arm_rot_r	elbow_flex_r	pro_sup_r	wrist_flex_r	wrist_dev_r	arm_flex_l	arm_add_l	arm_rot_l	elbow_flex_l	pro_sup_l	wrist_flex_l	wrist_dev_l
      2.50500000	    -21.03110027	      5.75985447	      4.33106028	      0.08475702	      1.14556875	     -0.20264243	      0.00000000	      0.50000000	      0.00000000	      0.25000000	     68.72071940	     -9.99874463	      2.06635202	     81.66923378	      1.42539703	     -3.93942061	    -13.78105096	      0.00000000	      0.00000000	     79.85671046	     -4.88720945	     -6.09347652	     69.65335337	      1.21568035	     24.25894423	      8.93573692	      0.00000000	      0.00000000	    -56.12394626	     -9.08062654	     -2.45075369	     89.46159961	    -37.31072913	     38.00444417	     62.62616954	     33.16656610	      0.00000000	      0.00000000	     89.72286195	     -4.16539497	     31.35315614	     58.45412306	     26.36314287	      0.00000000	      0.00000000
      2.51000000	    -21.10945539	      5.49766555	      4.13879586	      0.08668822	      1.14558547	     -0.20295370	      0.00000000	      0.50000000	      0.00000000	      0.25000000	     69.05114577	     -9.88304064	      1.79862636	     82.53014700	      1.44042280	     -3.50359810	    -13.87578254	      0.00000000	      0.00000000	     79.31185674	     -5.07582361	     -5.97503394	     68.68673194	      1.19880962	     23.86558292	      9.06893908	      0.00000000	      0.00000000	    -56.03120256	     -8.97535135	     -2.07380034	     89.45180080	    -37.42296063	     38.18222103	     62.79964559	     33.20230946	      0.00000000	      0.00000000	     89.71124343	     -4.30577422	     31.44665547	     58.50674382	     26.35607137	      0.00000000	      0.00000000
      2.51500000	    -21.16525210	      5.25243065	      4.13590272	      0.08869607	      1.14557613	     -0.20374654	      0.00000000	      0.50000000	      0.00000000	      0.25000000	     69.37193390	    -10.09387227	      1.43003970	     83.48510520	      1.45708996	     -2.64725235	    -13.15680804	      0.00000000	      0.00000000	     78.75953058	     -4.99995650	     -5.74977806	     67.70167055	      1.18161706	     23.38430336	      9.09417515	      0.00000000	      0.00000000	    -56.02179648	     -8.83314073	     -1.73327290	     89.43729841	    -38.69605173	     39.36241992	     63.80650325	     33.42644415	      0.00000000	      0.00000000	     89.70708479	     -4.56071597	     32.50002205	     58.72841103	     26.31863664	      0.00000000	      0.00000000
      2.52000000	    -21.19847140	      5.00358564	      3.94266252	      0.09063974	      1.14549507	     -0.20411558	      0.00000000	      0.50000000	      0.00000000	      0.25000000	     69.74399779	    -10.02848911	      1.16651623	     84.43080185	      1.47359548	     -2.36227801	    -13.24782310	      0.00000000	      0.00000000	     78.21635824	     -5.16350879	     -5.59859750	     66.82472124	      1.16631141	     22.89825763	      9.25460914	      0.00000000	      0.00000000	    -55.91532440	     -8.70739895	     -1.32818588	     89.40107953	    -38.70089246	     39.46253425	     63.87917711	     33.44286442	      0.00000000	      0.00000000	     89.69107481	     -4.62924253	     32.51427419	     58.76748049	     26.31552388	      0.00000000	      0.00000000
      2.52500000	    -21.22283818	      4.81008499	      3.96645529	      0.09273495	      1.14565344	     -0.20503346	      0.00000000	      0.50000000	      0.00000000	      0.25000000	     70.06071350	    -10.29616272	      0.87437857	     85.39554652	      1.49043345	     -1.49652661	    -12.53189281	      0.00000000	      0.00000000	     77.60794475	     -5.04558813	     -5.44556450	     65.85142995	      1.14932427	     22.24264022	      9.29638581	      0.00000000	      0.00000000	    -55.89439817	     -8.53972582	     -0.98621518	     89.38695696	    -39.70034819	     40.32108482	     64.42503713	     33.58359752	      0.00000000	      0.00000000	     89.69130059	     -4.66264902	     33.34336948	     58.72630097	     26.25755081	      0.00000000	      0.00000000
      2.53000000	    -21.22705647	      4.54176327	      3.77791713	      0.09473225	      1.14559670	     -0.20541593	      0.00000000	      0.50000000	      0.00000000	      0.25000000	     70.44116203	    -10.23089328	      0.61908112	     86.35918184	      1.50725206	     -1.29437976	    -12.57786086	      0.00000000	      0.00000000	     77.04896858	     -5.20306335	     -5.24398963	     65.01365275	      1.13470230	     21.64491369	      9.46979814	      0.00000000	      0.00000000	    -55.82272101	     -8.42999985	     -0.63157912	     89.35067068	    -39.71396687	     40.40216038	     64.46042545	     33.59440310	      0.00000000	      0.00000000	     89.67342285	     -4.72928403	     33.36011201	     58.74601596	     26.25428128	      0.00000000	      0.00000000
      2.53500000	    -21.20776788	      4.33709349	      3.78906195	      0.09683440	      1.14589397	     -0.20626652	      0.00000000	      0.50000000	      0.00000000	      0.25000000	     70.74006282	    -10.46729813	      0.34407555	     87.32006750	      1.52402268	     -0.59905047	    -11.96688609	      0.00000000	      0.00000000	     76.39961085	     -5.15447876	     -5.19588000	     64.05513243	      1.11797296	     20.87967307	      9.25894609	      0.00000000	      0.00000000	    -55.79629796	     -8.24658604	     -0.29233173	     89.32960418	    -40.38007886	     40.95631260	     64.63968321	     33.67006313	      0.00000000	      0.00000000	     89.67040079	     -4.68480689	     34.06735455	     58.55187910	     26.20645553	      0.00000000	      0.00000000
      2.54000000	    -21.18115820	      4.06361626	      3.59629468	      0.09883688	      1.14594929	     -0.20667431	      0.00000000	      0.50000000	      0.00000000	      0.25000000	     71.11331223	    -10.39053479	      0.12227285	     88.28827527	      1.54092109	     -0.39067923	    -11.96928176	      0.00000000	      0.00000000	     75.81884550	     -5.34579258	     -5.03880533	     63.26495221	      1.10418172	     20.30128561	      9.43138742	      0.00000000	      0.00000000	    -55.73690927	     -8.11269731	      0.05854047	     89.29869369	    -40.38355316	     41.03012925	     64.65350117	     33.67910270	      0.00000000	      0.00000000	     89.65193168	     -4.75070794	     34.10018307	     58.53465642	     26.20031518	      0.00000000	      0.00000000
      2.54500000	    -21.06604775	      3.82846423	      3.55018706	      0.10093188	      1.14637454	     -0.20741569	      0.00000000	      0.50000000	      0.00000000	      0.25000000	     71.34032231	    -10.53317409	     -0.12903046	     89.24406917	      1.55760284	      0.19985642	    -11.38524008	      0.00000000	      0.00000000	     75.09192893	     -5.33916991	     -4.91325506	     62.37508993	      1.08865069	     19.48227324	      9.27185935	      0.00000000	      0.00000000	    -55.76058561	     -7.95037092	      0.40851848	     89.27566508	    -40.81218840	     41.40026745	     64.60279481	     33.71650383	      0.00000000	      0.00000000	     89.64677491	     -4.67306405	     34.76207196	     58.18089878	     26.15211028	      0.00000000	      0.00000000
      2.55000000	    -21.00061249	      3.54409717	      3.33938524	      0.10291068	      1.14641345	     -0.20784451	      0.00000000	      0.50000000	      0.00000000	      0.25000000	     71.72632243	    -10.43307452	     -0.31644428	     90.22977257	      1.57480661	      0.28419216	    -11.35960561	      0.00000000	      0.00000000	     74.49583934	     -5.56353383	     -4.77996282	     61.65884021	      1.07614977	     18.92190811	      9.36218512	      0.00000000	      0.00000000	    -55.70918270	     -7.81252195	      0.78988016	     89.22324334	    -40.75933603	     41.46478655	     64.60280097	     33.72372847	      0.00000000	      0.00000000	     89.62403424	     -4.74000627	     34.77152753	     58.15875425	     26.14804874	      0.00000000	      0.00000000
      2.55500000	    -20.84832588	      3.29635608	      3.28540197	      0.10500201	      1.14693365	     -0.20859391	      0.00000000	      0.50000000	      0.00000000	      0.25000000	     71.97389888	    -10.56623279	     -0.52962577	     91.16816642	      1.59118468	      0.69107923	    -10.76634715	      0.00000000	      0.00000000	     73.74467858	     -5.57382706	     -4.65524999	     60.80259937	      1.06120555	     17.94939574	      9.09171511	      0.00000000	      0.00000000	    -55.74919509	     -7.60550122	      1.14162625	     89.21517579	    -41.02840802	     41.75193400	     64.40606730	     33.74409047	      0.00000000	      0.00000000	     89.62118297	     -4.62920478	     35.41852963	     57.65775402	     26.09723405	      0.00000000	      0.00000000
      2.56000000	    -20.75276983	      2.99308292	      3.10635370	      0.10701531	      1.14722315	     -0.20920386	      0.00000000	      0.50000000	      0.00000000	      0.25000000	     72.33471027	    -10.48942488	     -0.71417701	     92.09317793	      1.60732917	      0.69668663	    -10.67308401	      0.00000000	      0.00000000	     73.09352559	     -5.76989079	     -4.53093021	     60.05008539	      1.04807171	     17.20348163	      9.14359672	      0.00000000	      0.00000000	    -55.73129180	     -7.39365141	      1.51157244	     89.18222526	    -40.97182792	     41.82760589	     64.36916668	     33.75012009	      0.00000000	      0.00000000	     89.59411144	     -4.67684249	     35.47563739	     57.57659656	     26.08900929	      0.00000000	      0.00000000
      2.56500000	    -20.59239026	      2.68481746	      2.97606137	      0.10897761	      1.14765736	     -0.20985410	      0.00000000	      0.50000000	      0.00000000	      0.25000000	     72.63228021	    -10.46372052	     -0.90462692	     93.01101772	      1.62334850	      0.75038933	    -10.44978309	      0.00000000	      0.00000000	     72.37787622	     -5.92861771	     -4.39868984	     59.26999540	      1.03445657	     16.28904683	      9.16750245	      0.00000000	      0.00000000	    -55.77634761	     -7.14994672	      1.85860596	     89.15508680	    -40.92836221	     41.93134731	     64.29050091	     33.75358260	      0.00000000	      0.00000000	     89.56935630	     -4.70561900	     35.62812106	     57.40083361	     26.07184400	      0.00000000	      0.00000000
      2.57000000	    -20.35648128	      2.38607138	      2.87434650	      0.11098278	      1.14823875	     -0.21074912	      0.00000000	      0.50000000	      0.00000000	      0.25000000	     72.86000979	    -10.50205418	     -1.08553059	     93.92633964	      1.63932388	      0.81909031	    -10.09805010	      0.00000000	      0.00000000	     71.58943936	     -6.03711030	     -4.25637671	     58.51589789	      1.02129508	     15.34542997	      9.02965680	      0.00000000	      0.00000000	    -55.86241327	     -6.89229132	      2.18669528	     89.13347958	    -40.88556736	     42.08849233	     64.15992655	     33.75728141	      0.00000000	      0.00000000	     89.54913469	     -4.69947139	     35.89683140	     57.09735481	     26.04367006	      0.00000000	      0.00000000
